<svg version="1.2" xmlns="http://www.w3.org/2000/svg" viewBox="0 0 500 500" width="500" height="500"><defs><clipPath clipPathUnits="userSpaceOnUse" id="cp1"><path d="m0 0h500v500h-500z"/></clipPath></defs><style>tspan{white-space:pre}.a{fill:#def2fc}.b{fill:#a2d7f8}.c{fill:#0b2a96}.d{fill:#4aa7ed}.e{fill:#1f96fc}.f{fill:#69b8e0}.g{fill:#0b2ac8}.h{fill:#fbad82}.i{fill:#ea9165}.j{fill:#fbe202}.k{fill:#ffc600}.l{fill:#8babb7}.m{fill:#0b2a4c}.n{fill:none;stroke:#0b2ac8;stroke-linecap:round;stroke-miterlimit:10}.o{fill:#fbf302}</style><g clip-path="url(#cp1)"><path class="a" d="m148.4 323.6c0 0 12.7-21-0.6-62.6-13.3-41.7-32.1-45.9-30.4-68.1 1.8-22.2 2.7-43.1-12.6-63.6-15.4-20.4-58.6-36-58.6-36 0 0-0.6 38.1-3.3 69.2-2.7 31.2 0.2 53.1 12.5 71.2 12.3 18.1 8 35.6 12.7 55.9 4.8 20.3 65.9 49.1 65.9 49.1z"/><path class="a" d="m129.8 536.3l1.1-210.2h4l-1.1 210.2z"/><path class="b" d="m131.9 296.7c-13.5-12.7-27.4-25.8-36-42.7-6.1-11.7-9.2-24.3-12.1-39.7-1.3-7-2.5-14.1-3.6-21-2.3-13.9-4.8-28.4-8.3-42.4-6.1-24.3-14.7-43.3-26.3-58.2l0.8-0.6c11.7 15 20.4 34.1 26.5 58.6 3.5 14 5.9 28.5 8.3 42.5 1.1 6.9 2.3 14 3.6 20.9 2.9 15.3 6 27.9 11.9 39.5 8.6 16.7 22.5 29.7 35.9 42.4z"/><path class="b" d="m75.6 169.1c-7-3.9-13.9-8-20.7-12.2-4.2-2.7-8.2-5.4-10.5-9.5l0.9-0.5c2.2 3.9 6.1 6.6 10.2 9.1 6.7 4.3 13.6 8.4 20.6 12.2z"/><path class="b" d="m73.7 153.5l-1-0.3c3.7-12.1 5.9-24.6 6.6-37.3 0.2-2.3 0.2-4.5-0.9-6.3l0.9-0.5c1.2 2 1.2 4.5 1 6.9-0.7 12.7-2.9 25.3-6.6 37.5z"/><path class="b" d="m74.8 159.7l-0.9-0.3c5-15.8 7.4-32.3 7.2-48.9h1c0.2 16.7-2.2 33.3-7.3 49.2z"/><path class="b" d="m77.4 175.2l-0.6-0.8c4.1-3 6.7-7.7 8.8-11.8 6.3-12.1 11.1-25 14.2-38.3 0.1-0.2-0.1-0.5-0.2-0.6 0 0 0.1 0.1 0.2 0 0.1 0 0.2-0.1 0.2-0.1l-1-0.3c0.2-0.5 0.6-0.6 0.9-0.5 0.6 0.1 1.1 1.1 0.9 1.8-3.1 13.3-7.9 26.3-14.3 38.5-2.1 4.2-4.8 9-9.1 12.1z"/><path class="b" d="m77.5 181.7l-0.5-0.9c16.7-10.6 28.1-28.6 30.4-48.3l1 0.1c-2.4 20-13.9 38.3-30.9 49.1z"/><path class="b" d="m80.5 195.7c-6.4 0.8-12.8-1.3-19.4-3.8-6.4-2.4-12.8-4.9-19.1-7.5q0 0.5 0.1 1.1c6.1 2.5 12.4 5 18.6 7.4 5.8 2.1 11.4 4 17.1 4q1.5 0 2.9-0.2z"/><path class="b" d="m81.8 201.6c-2.5 0-5.4 0-8.4-0.5-3-0.5-5.9-1.5-8.8-2.4l-22.3-7.2q0 0.5 0 1l22 7.1c2.9 1 5.9 1.9 8.9 2.4 3.1 0.6 6.1 0.6 8.6 0.6z"/><path class="c" d="m444.7 303.1c0 0-18-18-16.9-65.3 1.2-47.3 18.1-57.4 10.2-80-7.9-22.5-14.7-43.9-5.6-69.8 9-25.9 46.1-55.2 46.1-55.2 0 0 11.3 39.4 22.6 71 11.2 31.5 14.6 55.2 7.8 77.7-6.7 22.5 2.3 39.4 3.4 61.9 1.1 22.6-49.5 71-49.5 71z"/><path class="c" d="m460.8 294.1h4l1.1 227.5-4 0.1z"/><path class="b" d="m465.1 314.2c-1.8-26.2 1.8-52.7 5.2-78.4 3.7-27.1 7.5-55.2 4.9-82.7-0.9-9.9-2.6-19.9-4.3-29.6-1.8-10.3-3.6-20.9-4.5-31.5-2-24.8 2.3-44.8 12.8-59.5l0.8 0.6c-10.3 14.5-14.6 34.3-12.6 58.8 0.9 10.6 2.7 21.2 4.5 31.4 1.7 9.7 3.4 19.7 4.3 29.7 2.6 27.6-1.2 55.7-4.9 82.9-3.4 25.6-7 52.1-5.2 78.2z"/><path class="b" d="m537.7 112.3h0.5v1h-0.5z"/><path class="b" d="m471.9 126.4l-0.7-0.7c9.8-8.8 19.5-18.1 28.6-27.7l0.7 0.7c-9.1 9.6-18.8 18.9-28.6 27.7z"/><path class="b" d="m471 117.6l-0.7-0.7c8.8-8.2 18.2-16.1 27.8-23.4l0.6 0.8c-9.6 7.3-18.9 15.1-27.7 23.3z"/><path class="b" d="m431.6 79.9l0.5-0.9 34.9 18.6-0.5 0.9z"/><path class="b" d="m467 95.7c-10.8-6.2-21.6-12.9-32-19.8l0.6-0.9c10.4 6.9 21.1 13.6 31.9 19.9z"/><path class="b" d="m465.4 86.6c-8.8-6.9-18.2-13-28.1-18l0.4-0.9c10 5.1 19.5 11.2 28.3 18.1z"/><path class="b" d="m475.6 167.2l37.6-26.1 0.6 0.8-37.6 26.2z"/><path class="b" d="m476.7 176.5l-0.5-0.8c13.1-8.7 26.7-16.9 40.4-24.4l0.5 0.9c-13.7 7.5-27.3 15.7-40.4 24.3z"/><path class="b" d="m476.3 189.4l-0.6-0.7c12-10.5 25.2-19.6 39.3-27.2l0.5 0.9c-14 7.5-27.2 16.6-39.2 27z"/><path class="b" d="m470.9 234.5l-0.4-0.9c9.2-4.4 17.5-7.1 26.2-9.9q8.3-2.8 16.6-5.5l0.3 1c-5.3 1.9-10.4 3.5-15.2 5.1q-0.7 0.2-1.4 0.4c-8.8 3-17.5 6.3-26.1 9.8z"/><path class="b" d="m470.3 240.5l-0.4-0.9c13.6-6.2 27.6-11.9 41.6-17l0.4 0.9c-14 5.1-28 10.8-41.6 17z"/><path class="b" d="m470.9 246.4l-0.3-0.9c14.3-4.8 28.7-9.9 42.8-15.1l0.4 1c-14.2 5.1-28.6 10.2-42.9 15z"/><path class="b" d="m475.2 199c-14.5-13.6-30.9-24.8-48.7-33.4l0.4-0.9c18 8.7 34.4 19.9 49 33.5z"/><path class="b" d="m475.3 194.3c-13.3-13.7-27.8-26.5-43-38.1l0.6-0.8c15.3 11.6 29.8 24.4 43.1 38.2z"/><path class="b" d="m475.6 187.3c-11.9-16.4-28.6-28.2-44.8-39.6l0.5-0.8c16.3 11.5 33.1 23.3 45.1 39.8z"/><path class="d" d="m248.8 62.1c0 0 23.6-5.6 59.7 4.5 36 10.1 47.3 19.2 55.2 48.4 7.8 29.3 18 30.4 38.2 53 20.3 22.5 29.3 46.1 26 76.6-3.4 30.4-16.9 67.5-16.9 67.5 0 0-50.7-25.9-76.6-78.8-25.9-52.9-15.8-56.3-40.6-75.5-24.8-19.1-52.9-83.3-45-95.7z"/><path class="e" d="m403.3 287.7l4-0.6 34.9 235.4-3.9 0.6z"/><path class="b" d="m409.2 298.8c-5.3-21.3-11.8-42.6-19.3-63.3-2.8-7.9-6.4-17.3-10.8-26.4-3.2-6.6-7-13.2-11.2-19.7-4.7-7.2-9.8-14.1-14.9-20.8l-14.1-19c-12.4-16.6-25.1-33.6-41.3-47-5.9-4.9-12.4-9.4-18.6-13.7-12-8.3-24.4-16.9-33.3-28.7l0.8-0.6c8.8 11.7 21.1 20.2 33.1 28.5 6.2 4.3 12.7 8.8 18.6 13.7 16.3 13.5 29.1 30.6 41.5 47.2l14.1 19c5.1 6.7 10.3 13.7 14.9 20.8 4.3 6.6 8.1 13.2 11.3 19.9 4.5 9.1 8 18.5 10.9 26.5 7.4 20.7 13.9 42 19.3 63.4z"/><path class="b" d="m322.3 126.3h-1c0.9-19.7-1.5-39.2-7.2-58l1-0.3c5.7 18.9 8.2 38.6 7.2 58.3z"/><path class="b" d="m327.1 132.6l-1-0.1c2.2-23.8 0.7-47.7-4.7-71l1-0.2c5.4 23.4 6.9 47.4 4.7 71.3z"/><path class="b" d="m330.4 137.1l-1-0.2c4.1-22.9 4.5-46.2 1.2-69.2l1-0.1c3.3 23.1 2.9 46.5-1.2 69.5z"/><path class="b" d="m294.5 100c-2.7-15.2-6.7-30.1-11.9-44.5l1-0.3c5.2 14.4 9.2 29.4 11.8 44.6z"/><path class="b" d="m289.8 96.7c-3.7-12.5-8.3-24.9-13.5-36.8l0.9-0.4c5.3 11.9 9.8 24.4 13.5 36.9z"/><path class="b" d="m283.7 93.3c-4-11.5-9-22.7-15-33.3l0.9-0.5c6 10.7 11 21.9 15 33.5z"/><path class="b" d="m258.4 114.6l-0.1-1c14.4-1.2 28.8-3.8 42.7-7.4l0.3 0.9c-14 3.7-28.5 6.2-42.9 7.5z"/><path class="b" d="m265.8 118.5q-3 0-5.9-0.5l0.2-1c7.9 1.3 16.3-0.5 23.7-2.1l23.5-5.1 0.2 0.9-23.5 5.2c-5.7 1.2-11.9 2.6-18.2 2.6z"/><path class="b" d="m306.1 156.8c-8.9 0-17.8-0.8-26.4-2.4l0.1-1c20.1 3.8 41.2 3.1 61-1.8l0.3 0.9-1.5 0.7-0.1-0.3c-10.9 2.6-22.2 3.9-33.4 3.9z"/><path class="b" d="m359.6 176.8l-0.8-0.6c11.2-17.4 13.1-39.2 14.8-58.4l1 0.1c-1.7 19.3-3.6 41.2-15 58.9z"/><path class="b" d="m358.3 172.4l-0.9-0.5c9.4-16 13.3-35 11.1-53.4l1-0.1c2.2 18.6-1.7 37.8-11.2 54z"/><path class="b" d="m362.8 180.2l-0.9-0.4c7.4-16.1 12-33.2 13.8-50.8l1 0.1c-1.8 17.7-6.5 34.9-13.9 51.1z"/><path class="e" d="m29 520.5l20.9-140.8-3.2-0.5-21 141.3z"/><path class="d" d="m174.5 197.8c0 0-19.1-4.5-48.1 3.7-29.1 8.1-38.2 15.4-44.5 39-6.4 23.6-14.6 24.5-30.9 42.7-16.3 18.2-23.6 37.2-20.9 61.7 2.7 24.6 13.6 54.5 13.6 54.5 0 0 40.9-20.9 61.8-63.5 20.9-42.7 12.7-45.4 32.7-60.9 19.9-15.4 42.6-67.2 36.3-77.2z"/><path class="c" d="m140.4 341.1c-23.2-2.2-45.3-8.9-62.3-27.1-30.5-32.6-28.2-48.2-36.6-57.8-8.4-9.6-36-2.5-54.5-11.7-18.6-9.2-23.6-55.9-23.6-55.9 0 0 54.4-14.2 112.5 11.3 27.2 11.9 53.1 29.7 70.7 54.8 9.1 13.1 15.6 27.6 20.5 42.7 1.6 5.1 9.9 44.2 12.8 44.1-13.1 0.5-26.4 0.8-39.5-0.4z"/><path class="c" d="m232.4 529.1l-4-0.5c0.1-0.3 4.6-37.4-9.9-100.4-14.5-62.9-60.5-103.3-61-103.7l2.6-3c0.5 0.4 47.5 41.6 62.3 105.8 14.7 63.8 10 101.5 10 101.8z"/><path class="f" d="m101.2 259.6q0 0.1 0 0.1c0 0.2 0 0.5-0.4 0.9q1.9 1.2 3.8 2.4-0.1-0.6-0.2-1.3-1.6-1-3.2-2.1z"/><path class="f" d="m100.6 259.5l-0.3 0.5c0 0.1 0.2 0.1 0.2 0.2 0.2 0 0.3-0.3 0.3-0.3 0-0.2-0.1-0.3-0.2-0.4z"/><path class="f" d="m-14.6 199l-22-10.3q0 0.3 0.2 1.2l21.3 10.1c22 10.3 44.4 20.8 66.4 32.3q-0.1-0.7-0.3-1.3c-21.8-11.3-43.9-21.7-65.6-32z"/><path class="f" d="m152.4 310.9c-8.5-11.8-17.3-24.1-28.1-34.1-2.9-2.6-6-5.1-9-7.4h-0.9q0-0.4-0.1-0.7c-2.9-2.2-5.8-4.3-8.8-6.2q0 0.3 0.1 0.6l-0.8 0.1c6.4 4.2 12.9 8.9 18.8 14.4q4.1 3.7 7.8 7.9 0.4-0.2 0.8-0.4l0.5 0.9q-0.3 0.1-0.6 0.3 1.1 1.2 2.1 2.4 0.2-0.1 0.3-0.1l0.5 0.8q0 0.1-0.1 0.1c6 7 11.4 14.6 16.7 22 7.4 10.3 15 21 24.1 30.2q0.7-0.1 1.4-0.1c-9.3-9.3-17.2-20.2-24.7-30.7z"/><path class="f" d="m100.5 259.2q-0.8-0.5-1.5-0.9l0.1 0.3-1 0.2-0.3-1.3c-14.8-9.2-30.1-17.8-45.6-25.9q0.1 0.5 0.2 1l-0.4 0.1c14.1 7.3 28.1 15.1 41.6 23.4q0.4-0.2 0.8-0.4l0.5 0.9q-0.2 0.1-0.3 0.1 1.4 0.9 2.8 1.7 1.2 0.8 2.4 1.6 0-0.2 0-0.3c0.1-0.3 0.4-0.5 0.7-0.5z"/><path class="f" d="m52.2 231.6c-3.6-14.6-8-29.1-13.1-43.3q-0.4 0-0.8-0.1l-0.2 0.1c5 13.9 9.3 28.3 12.9 42.7q0.2 0.6 0.3 1.3 0.1 0.2 0.1 0.5l0.6-0.1 0.4-0.1q-0.1-0.5-0.2-1z"/><path class="f" d="m99.1 258.6l-0.1-0.3-11.1-52.7q-0.5-0.3-1.1-0.6l11 52.5 0.3 1.3z"/><path class="f" d="m105.5 262.5c-2-18-5.6-35.8-10.7-53.2q-0.6-0.3-1.2-0.7c5.2 17.3 8.8 35.2 10.8 53.1q0.1 0.7 0.2 1.3 0 0.1 0 0.2h0.2l0.8-0.1q-0.1-0.3-0.1-0.6z"/><path class="f" d="m115.3 269.4h0.1c-0.1-9-2.3-17.9-4.4-26.4l-4.8-19.4c-0.8-3.2-1.6-6.5-3.2-9.4q-0.6-0.3-1.1-0.7l-0.3 0.2c1.9 3.1 2.8 6.6 3.7 10.1l4.8 19.4c2 8.3 4.1 16.8 4.2 25.5q0.1 0.3 0.1 0.7z"/><path class="f" d="m94.4 255.7q-0.4 0.2-0.8 0.4c-14.1 6.8-29 12-44.2 15.6q0.2 0.5 0.4 1c15.5-3.7 30.5-9.1 44.8-16q0.1 0 0.3-0.1z"/><path fill-rule="evenodd" class="f" d="m100.8 260.6q-0.1 0.1-0.3 0.2c-11.3 6.3-24.1 9.5-36.4 12.5l-12.6 3.1q-0.2-0.5-0.4-0.9l12.7-3.2c12.2-3 24.8-6.1 36-12.2q0-0.1 0-0.1 0-0.2 0-0.3c0.1-0.3 0.4-0.5 0.7-0.5 0.4 0 0.6 0.2 0.7 0.4q0 0.1 0 0.1c0 0.2 0 0.5-0.4 0.9zm-0.2-1.1l-0.3 0.5c0 0.1 0.2 0.1 0.2 0.2 0.2 0 0.3-0.3 0.3-0.3 0-0.2-0.1-0.3-0.2-0.4z"/><path class="f" d="m134.5 288.6q-0.1 0-0.3 0.1c-18.4 10.4-38.3 17.8-59 22.1q0.4 0.4 0.8 0.9c20.6-4.4 40.5-11.8 58.9-22.2q0.1 0 0.1-0.1z"/><path class="f" d="m132.2 285.1q-0.4 0.2-0.8 0.4c-18.6 10-38.5 17.4-59.1 22q0.3 0.4 0.7 0.8c20.6-4.6 40.5-12 59.1-22q0.3-0.2 0.6-0.3z"/><path class="a" d="m405.1 338.2c-23.3-0.5-45.8-5.8-64-22.7-32.6-30.4-31.5-46.2-40.5-55.2-9-9-36.1 0-55.2-7.9-19.1-7.8-27.4-54.1-27.4-54.1 0 0 53.3-17.9 113 3.5 28 10 55.1 26 74.3 49.8 10 12.4 17.6 26.4 23.4 41.2 2 5 13 43.4 15.8 43.1-12.9 1.4-26.3 2.6-39.4 2.3z"/><path class="a" d="m509.8 519.5l-4-0.3c0-0.3 2-37.6-16.8-99.5-18.7-61.7-67.5-98.8-68-99.2l2.4-3.2c0.5 0.4 50.3 38.3 69.4 101.2 19.1 62.7 17 100.6 17 101z"/><path class="f" d="m441.5 339c-46.1-49.2-108.7-90.4-186.1-122.3q-2.4-1-4.8-2c-12.3-5-25-10.2-36.3-17.6l0.6-0.8c11.1 7.3 23.8 12.5 36.1 17.5q2.4 1 4.8 2c77.5 32 140.2 73.2 186.4 122.5z"/><path class="f" d="m377.7 282.9c-0.9-20.8-3.3-41.6-7.1-62l0.9-0.2c3.9 20.4 6.3 41.3 7.2 62.1z"/><path class="f" d="m370.4 277.9l-1.7-25.3c-0.7-12.1-1.6-24.6-5.8-36.2l1-0.3c4.2 11.7 5 24.3 5.8 36.4l1.7 25.3z"/><path class="f" d="m341.9 205.8l1-0.2 8.3 58.6-1 0.1z"/><path class="f" d="m344.4 261c-2.7-19.7-5.9-39.7-9.7-59.2l1-0.2c3.8 19.6 7 39.5 9.6 59.3z"/><path class="f" d="m403.6 249.2l1-0.2 6.3 58.7-1 0.1z"/><path class="f" d="m403 302.9q0-0.1 0-0.2c0.1-20.2-1.6-40.4-5.1-60.3l1-0.1c3.5 19.8 5.2 40.2 5.1 60.4q0 0 0 0.1z"/></g><path class="g" d="m368.9 321.3l-155.8 8.9c0 0-70.4 87.3-90.6 126.7-2.8 5.5-3.4 11.7-2 17.6l6.4 25.4h114.9l-9.3-27.8 35.1-63.8-8.1 91.6h108.1c0 0 7.8-150.8 1.3-178.6z"/><path class="c" d="m267.6 408.3l-16.3-43.5-37.1 69.4-16.4 26.9 15.2 38.8h28.8l-8.5-28.7z"/><path class="h" d="m389.9 248.5l16 8.8 5.3 86.2c0 0-12.4 9.8-14.2 12.4-1.8 2.7 2.6 6.2 2.6 6.2l7.2-4.4c0 0 1.7 15.1 4.4 18.7l4.8-0.6v-15.4l3.2 15.4 5.5-0.8-0.4-13.1 4 13.5 4.3-0.8-1.6-13.8 4.8 13.8 3.9-0.8-1.6-14.2c0 0 10.7-4.4 8.3-19 6.7-36.7 9.5-88.8 11.1-106.2 1.6-17.3-13.2-39-29.2-49.7-1.2-0.8-38.4 63.8-38.4 63.8z"/><path class="i" d="m405.9 257.3l23.9-68.7-33.7 62.8z"/><path class="h" d="m200.1 147.2l17.8 45c0 0 6.5 18.4 17.7 20.1 13.1-0.6 16.6-63.9 16.6-63.9l-32.6-17.8z"/><path class="i" d="m219.6 130.6l-19.5 16.6 7 17.7c2.3-0.8 4.2-2.4 5.9-4.1 7.1-7.1 11.9-16.5 13.6-26.4z"/><path class="g" d="m157.5 144.8c0 0 2.3-3.2 5.3-1.2 3 2.1 3.8 7.7 3.5 12.5-0.2 4.7-3.8 9.8-5.9 10-2 0.3-4.4-4.1-4.4-4.1z"/><path class="g" d="m77.8 128.5c0 0-4.4-1.4-8.3 10-3.8 11.5-4.1 24.1-3.8 32 0.3 7.9 3.8 16.4 9.2 12.9 5.3-3.5 7.7-11.4 9.1-23.5 1.5-12 2.1-31.1-6.2-31.4z"/><path class="h" d="m136.2 199.3l-13.7 69.3c0 0 6.5 4.1 6.5 5.9 0 1.8 17.2 72.2 17.2 72.2 0 0-19.5 3.6-43.8 0.6-24.3-2.9-43.1-27.8-41.4-52.7 2.3-36.7 39-82.3 53.2-99.4z"/><path class="i" d="m122.5 268.6l-6.5 31.4 11.3-13.7z"/><path class="h" d="m134.1 210.5c1.2-7.9 3-15.6 4.7-23.4 0.4-1.6 0.2-16.8-1.2-15.7-2.1 1.6-29.1 28.8-23.9 30.9z"/><path class="g" d="m137.9 166.7l-11.2 44.2-9.8-2.7 8.6-38.2z"/><path class="h" d="m129.3 176.8c0 0-18 0.3-18.3 1.8-0.3 1.5 0.3 4.7 0.3 4.7 0 0-3 1.8-2.4 3.6 0.6 1.7 2.1 2.3 2.1 2.3 0 0-3 1.5-2.4 2.7 0.6 1.2 3.3 2.1 3.3 2.1 0 0-3.6 0.6-2.4 2.6 1.2 2.1 16.3 3 16.3 3 0 0 2.4 0 2.7-2.4 0.3-2.3-2.4-3.8-2.4-3.8 0 0 3.2-0.3 3.2-2.7 0-2.3-4.1-2.9-4.1-2.9 0 0 5.9 0.3 5.6-2.1-0.3-2.4-4.7-2.7-4.7-2.7 0 0 4.7-0.6 3.2-6.2z"/><path class="e" d="m74.9 183.9l84-21.3c0 0 6-7.7 1.5-17.2l-82.6-16.8c5.7 2.6 9.8 38.3-2.9 55.3z"/><path class="j" d="m222 201.7l13.6 10.6 40.3 125.6-65.7-3.6-12.5-9.5 10.7-11.8-4.7-7.7c0 0-45.8 42-56.5 47.4-12.2-36.7-24.7-84.1-24.7-84.1 0 0 24.3-35.5 35-52.7 10.6-17.2 50.9-47.4 50.9-47.4z"/><path class="k" d="m208.4 168.5l13.6 33.2-14.8 17.1c0 0-7.4-28-8.3-34.3-1.2-8.3 9.5-16 9.5-16z"/><path class="k" d="m203.7 305.3l-22.5-52.4-33.8 100.4c20.8-16.1 35.8-29.6 56.3-48z"/><path class="h" d="m210.8 112.3c0 0 10 0.6 8.8 18.3-1.1 17.8-13.6 23.7-24.2 22.5-10.7-1.2-17.8-51.5 15.4-40.8z"/><path class="l" d="m206.9 119.1c0 0 0.3 10.6 2.4 13.9 3.8-4.5 5-4.7 6.8-3.9 1.8 0.9 0.6 8.3-1.5 9.8 4.4-0.6 7.2-7.9 6.8-17.6-6.8-3.1-8.3-3.1-8.3-3.1z"/><path class="g" d="m188.1 115.8c-1.8 1.5-3 3.7-3.3 6 4-2.7 8.6-4.4 13.4-4.9-2.1 1.5-3.3 4-3.4 6.6 3-1.7 6.2-2.9 9.6-3.5q-0.4 1.8-0.8 3.7c0.6-3 15.6-2.6 17.8-2.4 0.9-3 1.1-6.4 0.1-9.4-1-3-3.3-5.7-6.3-6.6-5.6-1.8-14.8-1.3-20.3 0.6-2.5 0.8-4.7 2.2-6.8 3.8-1 0.9-5.1 6.5-6 6.5 2 0 4-0.3 6-0.4z"/><path class="m" d="m192.4 133.7c0 0.9-0.7 1.7-1.6 1.7-0.9 0-1.7-0.8-1.7-1.7 0-0.9 0.8-1.6 1.7-1.6 0.9 0 1.6 0.7 1.6 1.6z"/><path class="m" d="m203.1 133.7c0 0.9-0.8 1.7-1.7 1.7-0.9 0-1.6-0.8-1.6-1.7 0-0.9 0.7-1.6 1.6-1.6 0.9 0 1.7 0.7 1.7 1.6z"/><path class="n" d="m187.7 126.8c0 0 2.9-1.5 5.3 0.6"/><path class="n" d="m199.5 126.8c0 0 3-1.5 5.3 0.6"/><path class="n" d="m195.1 132.4l-2.7 8 5.6-1.2"/><path class="m" d="m194.2 142.8l9.5-2.4c0 0-0.3 6.5-3.6 6.8-3.3 0.3-5.9-4.4-5.9-4.4z"/><path class="o" d="m247.5 143.6l4.7 4.8-7.1 47.9-9.5 16 40.3 125.6 92.4-11.3c0 0 10-8.3 11.8-14.8 1.8-6.5-11.8-20.7-11.8-20.7 0 0 4.7-16.6 0.6-24.3-4.2-7.7-20.2-37.3-20.2-37.3l43.2 31.4 45-84.1c0 0-83.4-37.3-105.3-43.8-22-6.5-84.1 10.6-84.1 10.6z"/><path class="k" d="m247.5 143.6c0 0 1.2 31.4-2.4 52.7 13.6 4.2 22.5 7.2 22.5 7.2 0 0-1.8-35.6-4.1-48-2.4-12.4-10.7-11.9-16-11.9z"/><path class="j" d="m368.3 291.1c0 0 4.7-16.6 0.6-24.3-4.2-7.7-20.2-37.3-20.2-37.3l-18.3-10.4c0 0 14.2 32.9 18.6 48 4.3 14.7-18.2 47-6.2 62.5l22.4-2.8 3.3-0.4c1.4-1.2 10-8.6 11.6-14.6 1.8-6.5-11.8-20.7-11.8-20.7z"/><path class="j" d="m262.9 224.8l40.8-14.8c0 0 6.5 24.2 9.5 31.9 3 7.7-20.7 25.5-36.7 14.8z"/><path class="k" d="m397.9 160.2l39 16.6-29 55.7z"/><text style="transform:matrix(1,0,0,1,35.865,82.096)" ></text></svg>